<svg width="265" height="84" viewBox="0 0 265 84" fill="none" xmlns="http://www.w3.org/2000/svg">
<path d="M2.70898 24.4384C0.196836 26.1231 -1.27556 29.6908 1.49996 33.9565C4.27548 38.2222 43.9281 67.0157 45.3822 67.8152C46.8363 68.6147 48.291 68.7478 51.99 65.9493C55.6915 63.1494 86.615 41.2798 87.4129 40.622C88.6827 39.576 88.9997 37.0227 87.4129 35.8231C87.4129 35.8231 49.9503 62.2168 48.7237 63.2832C47.497 64.3497 45.5887 62.6169 45.9475 60.3509C46.3076 58.0849 46.5716 57.818 51.3299 54.3518C56.0882 50.8855 83.067 31.6365 84.2911 30.7856C85.6772 29.822 85.7105 28.1189 83.4395 26.6122C80.283 24.5182 46.1723 1.67903 45.0306 0.879538C43.8863 0.0800487 42.3034 -0.647599 39.9246 0.95204C37.5458 2.55234 7.32417 21.3427 2.70898 24.4384Z" fill="white"/>
<path d="M45.3821 70.624C44.4279 70.0987 27.0298 57.5231 14.3926 47.7314V68.1471C14.3821 83.05 58.9819 91.0126 73.7581 72.6923V53.1796C64.6813 59.6361 54.0641 67.1894 51.9898 68.7574C48.2909 71.5566 46.8361 71.4235 45.3821 70.624Z" fill="white"/>
<path d="M64.2952 48.8992C64.458 48.9999 64.6855 49.1506 64.9573 49.363C65.5494 49.8258 66.3565 50.5764 67.1819 51.7126C68.7617 53.8876 70.4296 57.5047 70.7678 63.282L68.2854 62.6375L67.8508 62.5251L67.6497 62.9265L65.9377 66.3494C65.2397 60.5206 63.6403 56.9938 62.1116 54.8845C61.2671 53.7194 60.4484 52.994 59.8274 52.5554C59.7473 52.4988 59.6709 52.4464 59.5979 52.3992L64.2952 48.8992Z" fill="white" stroke="#1C3141" stroke-width="1.10852"/>
<path d="M123.193 49.1528H118.315L107.271 32.464V49.1528H102.393V24.799H107.271L118.315 41.5227V24.799H123.193V49.1528ZM145.956 39.0838C145.956 39.7806 145.91 40.4078 145.817 40.9652H131.706C131.822 42.3589 132.31 43.4505 133.17 44.2403C134.029 45.03 135.086 45.4249 136.34 45.4249C138.152 45.4249 139.441 44.6467 140.207 43.0905H145.468C144.911 44.9487 143.842 46.4817 142.263 47.6895C140.684 48.8741 138.744 49.4664 136.445 49.4664C134.586 49.4664 132.914 49.0599 131.428 48.247C129.964 47.4108 128.814 46.2378 127.978 44.728C127.165 43.2183 126.759 41.4762 126.759 39.5019C126.759 37.5044 127.165 35.7507 127.978 34.2409C128.791 32.7312 129.929 31.5698 131.393 30.7568C132.856 29.9439 134.54 29.5374 136.445 29.5374C138.28 29.5374 139.917 29.9323 141.357 30.722C142.82 31.5117 143.947 32.6382 144.737 34.1016C145.55 35.5417 145.956 37.2024 145.956 39.0838ZM140.904 37.6902C140.881 36.4359 140.428 35.4371 139.545 34.6939C138.663 33.9274 137.583 33.5441 136.305 33.5441C135.097 33.5441 134.075 33.9157 133.239 34.659C132.426 35.3791 131.927 36.3894 131.741 37.6902H140.904ZM160.178 49.1528L156.206 43.1602L152.687 49.1528H147.461L153.767 39.4671L147.391 29.851H152.896L156.833 35.8088L160.387 29.851H165.613L159.272 39.4671L165.683 49.1528H160.178ZM173.21 45.2855H181.223V49.1528H168.332V24.8339H173.21V45.2855ZM202.266 39.0838C202.266 39.7806 202.22 40.4078 202.127 40.9652H188.016C188.133 42.3589 188.62 43.4505 189.48 44.2403C190.339 45.03 191.396 45.4249 192.65 45.4249C194.462 45.4249 195.751 44.6467 196.518 43.0905H201.779C201.221 44.9487 200.153 46.4817 198.573 47.6895C196.994 48.8741 195.054 49.4664 192.755 49.4664C190.897 49.4664 189.224 49.0599 187.738 48.247C186.274 47.4108 185.125 46.2378 184.289 44.728C183.476 43.2183 183.069 41.4762 183.069 39.5019C183.069 37.5044 183.476 35.7507 184.289 34.2409C185.101 32.7312 186.24 31.5698 187.703 30.7568C189.166 29.9439 190.85 29.5374 192.755 29.5374C194.59 29.5374 196.227 29.9323 197.667 30.722C199.131 31.5117 200.257 32.6382 201.047 34.1016C201.86 35.5417 202.266 37.2024 202.266 39.0838ZM197.214 37.6902C197.191 36.4359 196.738 35.4371 195.856 34.6939C194.973 33.9274 193.893 33.5441 192.615 33.5441C191.408 33.5441 190.386 33.9157 189.549 34.659C188.737 35.3791 188.237 36.3894 188.051 37.6902H197.214ZM204.572 39.4322C204.572 37.4811 204.956 35.7507 205.722 34.2409C206.512 32.7312 207.569 31.5698 208.893 30.7568C210.24 29.9439 211.738 29.5374 213.387 29.5374C214.827 29.5374 216.082 29.8277 217.15 30.4084C218.242 30.9891 219.113 31.7208 219.763 32.6034V29.851H224.676V49.1528H219.763V46.3307C219.136 47.2366 218.265 47.9915 217.15 48.5954C216.058 49.1761 214.792 49.4664 213.352 49.4664C211.726 49.4664 210.24 49.0483 208.893 48.2121C207.569 47.3759 206.512 46.203 205.722 44.6932C204.956 43.1602 204.572 41.4065 204.572 39.4322ZM219.763 39.5019C219.763 38.3173 219.531 37.3069 219.066 36.4707C218.602 35.6113 217.975 34.961 217.185 34.5197C216.395 34.0551 215.547 33.8228 214.641 33.8228C213.736 33.8228 212.899 34.0435 212.133 34.4848C211.366 34.9261 210.739 35.5765 210.252 36.4359C209.787 37.2721 209.555 38.2709 209.555 39.4322C209.555 40.5936 209.787 41.6156 210.252 42.4982C210.739 43.3576 211.366 44.0196 212.133 44.4842C212.923 44.9487 213.759 45.181 214.641 45.181C215.547 45.181 216.395 44.9603 217.185 44.519C217.975 44.0544 218.602 43.4041 219.066 42.5679C219.531 41.7085 219.763 40.6865 219.763 39.5019ZM234.317 32.8473C234.944 31.8253 235.757 31.0239 236.756 30.4433C237.778 29.8626 238.94 29.5722 240.24 29.5722V34.6939H238.951C237.418 34.6939 236.257 35.0539 235.467 35.7739C234.701 36.494 234.317 37.7482 234.317 39.5367V49.1528H229.44V29.851H234.317V32.8473ZM254.222 29.5722C256.521 29.5722 258.38 30.3039 259.796 31.7672C261.213 33.2073 261.922 35.2281 261.922 37.8295V49.1528H257.044V38.4915C257.044 36.9585 256.661 35.7855 255.894 34.9726C255.128 34.1364 254.082 33.7183 252.759 33.7183C251.411 33.7183 250.343 34.1364 249.553 34.9726C248.787 35.7855 248.403 36.9585 248.403 38.4915V49.1528H243.526V29.851H248.403V32.255C249.054 31.4188 249.878 30.7684 250.877 30.3039C251.899 29.8161 253.014 29.5722 254.222 29.5722Z" fill="white"/>
<path d="M104.002 63.0486H102.664V69.0547H101.156V63.0486H100.303V61.829H101.156V61.3176C101.156 60.487 101.374 59.8838 101.812 59.5079C102.257 59.1232 102.952 58.9309 103.897 58.9309V60.1767C103.442 60.1767 103.123 60.2641 102.939 60.4389C102.756 60.6051 102.664 60.8979 102.664 61.3176V61.829H104.002V63.0486ZM111.87 61.829V69.0547H110.375V68.2023C110.139 68.4995 109.829 68.7356 109.444 68.9104C109.068 69.0765 108.666 69.1596 108.238 69.1596C107.669 69.1596 107.158 69.0416 106.703 68.8055C106.258 68.5695 105.903 68.2198 105.641 67.7564C105.388 67.2931 105.261 66.7336 105.261 66.0779V61.829H106.743V65.8549C106.743 66.5019 106.905 67.0002 107.228 67.3499C107.551 67.6909 107.993 67.8613 108.552 67.8613C109.112 67.8613 109.553 67.6909 109.877 67.3499C110.209 67.0002 110.375 66.5019 110.375 65.8549V61.829H111.87ZM115.587 63.0486V67.0483C115.587 67.3193 115.648 67.516 115.77 67.6384C115.902 67.7521 116.12 67.8089 116.426 67.8089H117.344V69.0547H116.164C115.491 69.0547 114.975 68.8973 114.616 68.5826C114.258 68.2679 114.079 67.7564 114.079 67.0483V63.0486H113.226V61.829H114.079V60.0324H115.587V61.829H117.344V63.0486H115.587ZM125.266 61.829V69.0547H123.771V68.2023C123.535 68.4995 123.224 68.7356 122.84 68.9104C122.464 69.0765 122.062 69.1596 121.633 69.1596C121.065 69.1596 120.554 69.0416 120.099 68.8055C119.653 68.5695 119.299 68.2198 119.037 67.7564C118.783 67.2931 118.656 66.7336 118.656 66.0779V61.829H120.138V65.8549C120.138 66.5019 120.3 67.0002 120.623 67.3499C120.947 67.6909 121.388 67.8613 121.948 67.8613C122.507 67.8613 122.949 67.6909 123.272 67.3499C123.605 67.0002 123.771 66.5019 123.771 65.8549V61.829H125.266ZM128.733 62.8781C128.952 62.5109 129.24 62.2268 129.599 62.0257C129.966 61.8159 130.399 61.711 130.897 61.711V63.2584H130.517C129.931 63.2584 129.485 63.407 129.179 63.7043C128.882 64.0015 128.733 64.5173 128.733 65.2517V69.0547H127.238V61.829H128.733V62.8781ZM133.032 60.8717C132.761 60.8717 132.533 60.7799 132.35 60.5963C132.166 60.4127 132.074 60.1854 132.074 59.9144C132.074 59.6434 132.166 59.4161 132.35 59.2325C132.533 59.0489 132.761 58.9571 133.032 58.9571C133.294 58.9571 133.517 59.0489 133.701 59.2325C133.884 59.4161 133.976 59.6434 133.976 59.9144C133.976 60.1854 133.884 60.4127 133.701 60.5963C133.517 60.7799 133.294 60.8717 133.032 60.8717ZM133.766 61.829V69.0547H132.271V61.829H133.766ZM138.352 69.1727C137.783 69.1727 137.272 69.0722 136.817 68.8711C136.371 68.6613 136.017 68.3815 135.755 68.0318C135.493 67.6734 135.353 67.2756 135.335 66.8385H136.883C136.909 67.1444 137.053 67.4024 137.316 67.6122C137.587 67.8133 137.923 67.9138 138.325 67.9138C138.745 67.9138 139.069 67.8351 139.296 67.6777C139.532 67.5116 139.65 67.3018 139.65 67.0483C139.65 66.7773 139.519 66.5762 139.257 66.445C139.003 66.3139 138.596 66.1697 138.037 66.0123C137.495 65.8637 137.053 65.7194 136.712 65.5795C136.371 65.4397 136.074 65.2255 135.821 64.937C135.576 64.6485 135.454 64.2682 135.454 63.7961C135.454 63.4114 135.567 63.0617 135.794 62.747C136.022 62.4235 136.345 62.17 136.765 61.9864C137.193 61.8028 137.683 61.711 138.234 61.711C139.055 61.711 139.715 61.9208 140.214 62.3404C140.721 62.7513 140.992 63.3152 141.027 64.0321H139.532C139.506 63.7086 139.375 63.4507 139.138 63.2584C138.902 63.0661 138.583 62.9699 138.181 62.9699C137.788 62.9699 137.486 63.0442 137.276 63.1928C137.067 63.3415 136.962 63.5382 136.962 63.783C136.962 63.9753 137.032 64.137 137.171 64.2682C137.311 64.3993 137.482 64.5042 137.683 64.5829C137.884 64.6528 138.181 64.7446 138.575 64.8583C139.099 64.9982 139.528 65.1424 139.86 65.291C140.201 65.4309 140.494 65.6407 140.738 65.9205C140.983 66.2003 141.11 66.5718 141.119 67.0352C141.119 67.4461 141.005 67.8133 140.778 68.1367C140.55 68.4602 140.227 68.7137 139.807 68.8973C139.396 69.0809 138.911 69.1727 138.352 69.1727ZM144.478 63.0486V67.0483C144.478 67.3193 144.539 67.516 144.662 67.6384C144.793 67.7521 145.011 67.8089 145.317 67.8089H146.235V69.0547H145.055C144.382 69.0547 143.866 68.8973 143.508 68.5826C143.149 68.2679 142.97 67.7564 142.97 67.0483V63.0486H142.118V61.829H142.97V60.0324H144.478V61.829H146.235V63.0486H144.478ZM148.374 60.8717C148.103 60.8717 147.876 60.7799 147.692 60.5963C147.508 60.4127 147.417 60.1854 147.417 59.9144C147.417 59.6434 147.508 59.4161 147.692 59.2325C147.876 59.0489 148.103 58.9571 148.374 58.9571C148.636 58.9571 148.859 59.0489 149.043 59.2325C149.226 59.4161 149.318 59.6434 149.318 59.9144C149.318 60.1854 149.226 60.4127 149.043 60.5963C148.859 60.7799 148.636 60.8717 148.374 60.8717ZM149.108 61.829V69.0547H147.613V61.829H149.108ZM150.573 65.4353C150.573 64.6922 150.721 64.0409 151.019 63.4813C151.325 62.9131 151.744 62.4759 152.277 62.17C152.811 61.864 153.423 61.711 154.113 61.711C154.988 61.711 155.709 61.9208 156.277 62.3404C156.854 62.7513 157.243 63.3415 157.444 64.1108H155.831C155.7 63.7524 155.49 63.4726 155.202 63.2715C154.913 63.0704 154.55 62.9699 154.113 62.9699C153.501 62.9699 153.012 63.1885 152.645 63.6256C152.286 64.054 152.107 64.6572 152.107 65.4353C152.107 66.2134 152.286 66.821 152.645 67.2581C153.012 67.6952 153.501 67.9138 154.113 67.9138C154.979 67.9138 155.552 67.5335 155.831 66.7729H157.444C157.234 67.5073 156.841 68.093 156.264 68.5301C155.687 68.9585 154.97 69.1727 154.113 69.1727C153.423 69.1727 152.811 69.0197 152.277 68.7137C151.744 68.399 151.325 67.9619 151.019 67.4024C150.721 66.8341 150.573 66.1784 150.573 65.4353ZM163.836 59.3505V69.0547H162.341V59.3505H163.836ZM172.421 65.2648C172.421 65.5358 172.403 65.7806 172.368 65.9992H166.847C166.891 66.5762 167.105 67.0395 167.49 67.3892C167.875 67.7389 168.347 67.9138 168.906 67.9138C169.711 67.9138 170.279 67.5772 170.611 66.904H172.224C172.006 67.5685 171.608 68.1149 171.031 68.5433C170.462 68.9629 169.754 69.1727 168.906 69.1727C168.216 69.1727 167.595 69.0197 167.044 68.7137C166.502 68.399 166.074 67.9619 165.759 67.4024C165.453 66.8341 165.3 66.1784 165.3 65.4353C165.3 64.6922 165.449 64.0409 165.746 63.4813C166.052 62.9131 166.476 62.4759 167.018 62.17C167.569 61.864 168.198 61.711 168.906 61.711C169.588 61.711 170.196 61.8596 170.729 62.1568C171.262 62.4541 171.678 62.8737 171.975 63.4158C172.272 63.9491 172.421 64.5654 172.421 65.2648ZM170.86 64.7927C170.852 64.2419 170.655 63.8004 170.27 63.4682C169.885 63.136 169.409 62.9699 168.841 62.9699C168.325 62.9699 167.883 63.136 167.516 63.4682C167.149 63.7917 166.931 64.2332 166.861 64.7927H170.86ZM173.394 65.4091C173.394 64.6834 173.542 64.0409 173.84 63.4813C174.146 62.9218 174.556 62.4891 175.072 62.1831C175.597 61.8683 176.174 61.711 176.803 61.711C177.372 61.711 177.865 61.8246 178.285 62.0519C178.713 62.2705 179.054 62.5459 179.308 62.8781V61.829H180.816V69.0547H179.308V67.9794C179.054 68.3203 178.709 68.6044 178.272 68.8318C177.835 69.0591 177.337 69.1727 176.777 69.1727C176.156 69.1727 175.588 69.0153 175.072 68.7006C174.556 68.3771 174.146 67.9313 173.84 67.363C173.542 66.786 173.394 66.1347 173.394 65.4091ZM179.308 65.4353C179.308 64.937 179.203 64.5042 178.993 64.137C178.792 63.7698 178.526 63.4901 178.193 63.2977C177.861 63.1054 177.503 63.0092 177.118 63.0092C176.733 63.0092 176.375 63.1054 176.043 63.2977C175.71 63.4813 175.439 63.7567 175.23 64.1239C175.029 64.4824 174.928 64.9107 174.928 65.4091C174.928 65.9074 175.029 66.3445 175.23 66.7204C175.439 67.0964 175.71 67.3849 176.043 67.5859C176.384 67.7783 176.742 67.8744 177.118 67.8744C177.503 67.8744 177.861 67.7783 178.193 67.5859C178.526 67.3936 178.792 67.1139 178.993 66.7467C179.203 66.3707 179.308 65.9336 179.308 65.4353ZM184.275 62.8781C184.493 62.5109 184.782 62.2268 185.14 62.0257C185.507 61.8159 185.94 61.711 186.438 61.711V63.2584H186.058C185.472 63.2584 185.026 63.407 184.72 63.7043C184.423 64.0015 184.275 64.5173 184.275 65.2517V69.0547H182.78V61.829H184.275V62.8781ZM191.458 61.711C192.026 61.711 192.534 61.829 192.979 62.0651C193.434 62.3011 193.788 62.6508 194.042 63.1142C194.295 63.5775 194.422 64.137 194.422 64.7927V69.0547H192.94V65.0156C192.94 64.3687 192.778 63.8748 192.455 63.5338C192.131 63.1841 191.69 63.0092 191.13 63.0092C190.571 63.0092 190.125 63.1841 189.793 63.5338C189.469 63.8748 189.308 64.3687 189.308 65.0156V69.0547H187.813V61.829H189.308V62.6552C189.552 62.3579 189.863 62.1262 190.239 61.9601C190.623 61.794 191.03 61.711 191.458 61.711ZM197.089 60.8717C196.818 60.8717 196.591 60.7799 196.408 60.5963C196.224 60.4127 196.132 60.1854 196.132 59.9144C196.132 59.6434 196.224 59.4161 196.408 59.2325C196.591 59.0489 196.818 58.9571 197.089 58.9571C197.352 58.9571 197.575 59.0489 197.758 59.2325C197.942 59.4161 198.034 59.6434 198.034 59.9144C198.034 60.1854 197.942 60.4127 197.758 60.5963C197.575 60.7799 197.352 60.8717 197.089 60.8717ZM197.824 61.829V69.0547H196.329V61.829H197.824ZM203.432 61.711C204 61.711 204.508 61.829 204.953 62.0651C205.408 62.3011 205.762 62.6508 206.016 63.1142C206.269 63.5775 206.396 64.137 206.396 64.7927V69.0547H204.914V65.0156C204.914 64.3687 204.752 63.8748 204.429 63.5338C204.105 63.1841 203.664 63.0092 203.104 63.0092C202.545 63.0092 202.099 63.1841 201.767 63.5338C201.443 63.8748 201.282 64.3687 201.282 65.0156V69.0547H199.787V61.829H201.282V62.6552C201.526 62.3579 201.837 62.1262 202.213 61.9601C202.597 61.794 203.004 61.711 203.432 61.711ZM211.214 61.711C211.774 61.711 212.268 61.8246 212.696 62.0519C213.133 62.2705 213.474 62.5459 213.719 62.8781V61.829H215.227V69.1727C215.227 69.8371 215.087 70.4273 214.807 70.9431C214.527 71.4676 214.121 71.8785 213.588 72.1758C213.063 72.473 212.434 72.6216 211.699 72.6216C210.72 72.6216 209.907 72.39 209.26 71.9266C208.613 71.472 208.246 70.8513 208.159 70.0644H209.64C209.754 70.4404 209.994 70.742 210.362 70.9693C210.738 71.2053 211.183 71.3234 211.699 71.3234C212.303 71.3234 212.788 71.1398 213.155 70.7726C213.531 70.4054 213.719 69.8721 213.719 69.1727V67.9662C213.465 68.3072 213.12 68.5957 212.683 68.8318C212.254 69.0591 211.765 69.1727 211.214 69.1727C210.585 69.1727 210.008 69.0153 209.483 68.7006C208.967 68.3771 208.556 67.9313 208.25 67.363C207.953 66.786 207.804 66.1347 207.804 65.4091C207.804 64.6834 207.953 64.0409 208.25 63.4813C208.556 62.9218 208.967 62.4891 209.483 62.1831C210.008 61.8683 210.585 61.711 211.214 61.711ZM213.719 65.4353C213.719 64.937 213.614 64.5042 213.404 64.137C213.203 63.7698 212.936 63.4901 212.604 63.2977C212.272 63.1054 211.913 63.0092 211.529 63.0092C211.144 63.0092 210.786 63.1054 210.453 63.2977C210.121 63.4813 209.85 63.7567 209.64 64.1239C209.439 64.4824 209.339 64.9107 209.339 65.4091C209.339 65.9074 209.439 66.3445 209.64 66.7204C209.85 67.0964 210.121 67.3849 210.453 67.5859C210.794 67.7783 211.153 67.8744 211.529 67.8744C211.913 67.8744 212.272 67.7783 212.604 67.5859C212.936 67.3936 213.203 67.1139 213.404 66.7467C213.614 66.3707 213.719 65.9336 213.719 65.4353Z" fill="white"/>
</svg>
